<?xml version="1.0" encoding="UTF-8"?>
<!DOCTYPE svg PUBLIC "-//W3C//DTD SVG 1.1//EN" "http://www.w3.org/Graphics/SVG/1.1/DTD/svg11.dtd">
<!-- Creator: CorelDRAW X6 -->
<svg xmlns="http://www.w3.org/2000/svg" xml:space="preserve" width="215.9mm" height="279.4mm" version="1.1" style="shape-rendering:geometricPrecision; text-rendering:geometricPrecision; image-rendering:optimizeQuality; fill-rule:evenodd; clip-rule:evenodd"
viewBox="0 0 21590 27940"
 xmlns:xlink="http://www.w3.org/1999/xlink">
 <defs>
  <style type="text/css">
   <![CDATA[
    .str0 {stroke:#FEFEFE;stroke-width:100;stroke-linecap:round}
    .fil0 {fill:none}
   ]]>
  </style>
 </defs>
 <g id="Capa_x0020_1">
  <metadata id="CorelCorpID_0Corel-Layer"/>
  <path class="fil0 str0" d="M1988 10763c1262,-1769 4000,564 6107,654"/>
  <path class="fil0 str0" d="M4213 10243c368,6671 5118,12858 11242,8247 188,-142 2461,-1787 2512,-1801"/>
  <path class="fil0 str0" d="M5330 12243c1435,-1241 3510,-808 5058,-493 3652,745 4663,-1245 5779,-4288 0,7778 -8629,10747 -11801,2956"/>
  <path class="fil0 str0" d="M8134 14617c604,3796 7040,4030 7745,3564"/>
  <path class="fil0 str0" d="M1988 10763c497,382 801,576 1148,695 433,149 772,145 1183,-79"/>
  <path class="fil0 str0" d="M15569 18325c774,-1048 1686,-2007 2315,-3154"/>
  <path class="fil0 str0" d="M15667 18334c1238,-405 2538,-657 3715,-1227"/>
 </g>
</svg>
