<?xml version="1.0" encoding="UTF-8"?>
<!DOCTYPE svg PUBLIC "-//W3C//DTD SVG 1.1//EN" "http://www.w3.org/Graphics/SVG/1.1/DTD/svg11.dtd">
<!-- Creator: CorelDRAW X6 -->
<svg xmlns="http://www.w3.org/2000/svg" xml:space="preserve" width="215.9mm" height="279.4mm" version="1.1" style="shape-rendering:geometricPrecision; text-rendering:geometricPrecision; image-rendering:optimizeQuality; fill-rule:evenodd; clip-rule:evenodd"
viewBox="0 0 21590 27940"
 xmlns:xlink="http://www.w3.org/1999/xlink">
 <defs>
  <style type="text/css">
   <![CDATA[
    .str0 {stroke:#FEFEFE;stroke-width:100;stroke-linecap:round}
    .fil0 {fill:none}
   ]]>
  </style>
 </defs>
 <g id="Capa_x0020_1">
  <metadata id="CorelCorpID_0Corel-Layer"/>
  <g id="_558776768">
   <path class="fil0 str0" d="M15287 9034c-312,-8 -640,223 -926,422 -553,384 -940,1026 -1740,1046 -1440,37 -2806,395 -3847,1351 -600,551 -1219,1189 -1355,2369 -66,576 -79,1021 61,1513 653,2291 3331,3272 3623,3843 256,501 -149,-718 342,112 28,47 229,234 486,279 95,16 261,72 298,-16 73,-174 218,-75 305,-115 130,-59 209,-194 354,-124 134,65 314,52 366,29"/>
   <path class="fil0 str0" d="M15562 9266c351,432 -421,1236 564,2013 941,743 2209,1311 2799,2340 400,698 439,1596 410,2398 -58,1623 -1012,2908 -2578,3458 -1182,415 -2341,197 -3037,226"/>
   <path class="fil0 str0" d="M9826 17733c-772,-1112 -2264,-3903 2633,-6622 455,-253 272,-125 731,-413 536,-337 1158,-990 1598,-1137 829,-277 276,1794 310,2440 57,1094 271,2143 405,2755 205,937 36,1957 -482,2722 -358,527 -896,1039 -1109,1080"/>
   <path class="fil0 str0" d="M12331 10538c-692,388 -2083,864 -3028,1951 -490,564 -855,1409 -951,2103 -86,619 -104,1286 466,2052"/>
   <path class="fil0 str0" d="M15244 10081c99,77 346,1093 425,1291 755,1904 1883,4772 -12,6400 -5,5 -11,9 -16,14 -308,257 -697,405 -1002,680"/>
   <path class="fil0 str0" d="M15989 11364c214,1056 4708,4821 -771,7406"/>
   <path class="fil0 str0" d="M17472 12212c1106,1341 1570,2485 1250,4193 -228,1218 -1188,1959 -2497,2499 -243,100 -1953,536 -2170,536"/>
   <path class="fil0 str0" d="M10365 18182c-2212,-3491 371,-5079 2811,-7150 422,-358 669,-786 976,-1074"/>
   <path class="fil0 str0" d="M11557 10594c-609,319 -1276,443 -2380,1298 -2315,1793 -1415,4496 344,6314 64,66 291,314 275,366"/>
   <path class="fil0 str0" d="M10220 17051c-571,-2792 1125,-3559 3254,-5982 411,-467 1111,-791 1111,-51 0,370 -238,1278 -238,2064 0,823 -112,3198 -311,3883 -89,305 -327,1103 -721,1171"/>
   <path class="fil0 str0" d="M14103 10613c-26,100 -238,261 -214,338 39,128 336,165 322,333 -19,232 -122,506 -231,803 -497,1349 -1021,2375 -1472,3536"/>
   <path class="fil0 str0" d="M10356 18957c60,-434 269,-133 446,-133 -3,-34 75,-605 267,-332 136,193 441,160 636,-17 278,-252 9,605 751,299 582,-240 -103,620 739,377 146,-42 321,157 -29,215 -113,19 31,238 31,238"/>
   <path class="fil0 str0" d="M8439 17405c-1643,422 -2692,487 -4238,-250 -4282,-2042 -576,-6268 -1522,-7406 -152,-391 291,64 291,-344 0,-175 153,105 146,-162 -4,-140 187,94 197,-235 5,-168 183,237 238,-212 17,-136 633,93 901,93 563,0 1047,-9 1605,-162 1361,-373 4057,387 4917,1644"/>
   <path class="fil0 str0" d="M4094 14128c0,-221 248,-597 535,-778 243,-153 533,-98 530,-388 -7,-684 772,-676 895,-871 293,-461 936,-1320 -538,-1888 -276,-106 -543,182 -1052,245 -206,25 -52,259 -399,318 -853,144 -1482,2698 -633,2992"/>
   <path class="fil0 str0" d="M8258 12367c-384,-155 -1510,-640 -863,-1185 301,-253 695,461 602,-434 -19,-179 232,105 415,-360 145,-370 703,-208 983,-106 180,66 556,491 626,538"/>
   <path class="fil0 str0" d="M3168 10053c70,-17 423,35 374,-407 -26,-240 420,-13 420,-387"/>
   <path class="fil0 str0" d="M4941 9127c-266,0 -371,281 -548,408 -136,98 -359,23 -449,155 -79,117 -17,318 -84,428 -65,107 -260,124 -401,165 -177,52 -46,227 -159,245"/>
   <path class="fil0 str0" d="M5629 9101c951,-411 2726,-12 3940,641 387,208 718,442 946,683"/>
   <path class="fil0 str0" d="M2957 11204c-537,2410 -647,5355 2738,5821"/>
   <path class="fil0 str0" d="M5212 9484c913,-326 2528,-22 3129,523"/>
   <path class="fil0 str0" d="M6275 12692c10,10 20,21 31,32 244,252 837,835 924,970"/>
   <path class="fil0 str0" d="M5364 14498c402,680 1357,1045 1852,1455"/>
   <path class="fil0 str0" d="M3777 14234c830,2345 3524,2563 3651,2619"/>
   <path class="fil0 str0" d="M6476 11456c279,231 979,690 1085,1058"/>
  </g>
 </g>
</svg>
