<?xml version="1.0" encoding="UTF-8"?>
<!DOCTYPE svg PUBLIC "-//W3C//DTD SVG 1.1//EN" "http://www.w3.org/Graphics/SVG/1.1/DTD/svg11.dtd">
<!-- Creator: CorelDRAW X6 -->
<svg xmlns="http://www.w3.org/2000/svg" xml:space="preserve" width="215.9mm" height="279.4mm" version="1.1" style="shape-rendering:geometricPrecision; text-rendering:geometricPrecision; image-rendering:optimizeQuality; fill-rule:evenodd; clip-rule:evenodd"
viewBox="0 0 21590 27940"
 xmlns:xlink="http://www.w3.org/1999/xlink">
 <defs>
  <style type="text/css">
   <![CDATA[
    .str0 {stroke:#FEFEFE;stroke-width:75}
    .str1 {stroke:#FEFEFE;stroke-width:100;stroke-linecap:round}
    .fil1 {fill:none}
    .fil0 {fill:#FEFEFE}
   ]]>
  </style>
 </defs>
 <g id="Capa_x0020_1">
  <metadata id="CorelCorpID_0Corel-Layer"/>
  <g id="_562362320">
   <circle class="fil0" cx="11060" cy="12" r="132"/>
   <path class="fil1 str0" d="M11060 12c-388,13 -327,225 -108,344 740,406 -2101,402 -728,1291 180,117 396,329 396,560"/>
   <circle class="fil0" cx="11102" cy="2340" r="132"/>
   <circle class="fil0" cx="10620" cy="2296" r="132"/>
   <circle class="fil0" cx="10033" cy="2332" r="132"/>
   <circle class="fil0" cx="11618" cy="2450" r="132"/>
   <circle class="fil0" cx="12074" cy="2589" r="132"/>
   <circle class="fil0" cx="12411" cy="2809" r="132"/>
   <circle class="fil0" cx="9614" cy="2472" r="132"/>
   <circle class="fil0" cx="9367" cy="2686" r="103"/>
   <circle class="fil0" cx="9320" cy="3015" r="103"/>
   <circle class="fil0" cx="12573" cy="3103" r="103"/>
   <path class="fil1 str1" d="M9376 3051c182,75 55,667 55,779"/>
   <path class="fil1 str1" d="M11442 3712c-3137,-489 -2215,1350 -2357,1992"/>
   <path class="fil1 str1" d="M11149 6759c-3137,-489 -2215,1350 -2357,1992"/>
   <path class="fil1 str1" d="M11120 9989c-3137,-489 -2215,1350 -2357,1992"/>
   <path class="fil1 str1" d="M10935 13131c-3137,-489 -2215,1350 -2357,1992"/>
   <path class="fil1 str1" d="M10935 16435c-3137,-489 -2215,1350 -2357,1992"/>
   <path class="fil1 str1" d="M12755 4322c-11,34 59,978 64,1122 0,5 0,10 1,15 5,153 51,1247 -138,589 -177,-615 -2162,-749 -2790,-587"/>
   <path class="fil1 str1" d="M12828 7295c-26,80 74,1338 69,1615 -6,317 -42,458 -142,110 -177,-615 -2163,-749 -2790,-587"/>
   <path class="fil1 str1" d="M12994 10525c0,0 11,142 24,348 9,135 19,298 28,468 4,67 7,136 10,204 2,49 4,99 6,147 22,591 8,1083 -143,558 -177,-615 -2162,-749 -2790,-587"/>
   <path class="fil1 str1" d="M13142 13650c309,2168 -795,1753 -2917,1502"/>
   <path class="fil1 str1" d="M12573 3103c-196,56 -143,797 -143,902"/>
   <path class="fil1 str1" d="M9952 18495c516,0 2931,173 3195,-298 167,-297 23,-1200 18,-1624"/>
   <path class="fil1 str1" d="M7911 18801c-851,1195 -20,1061 1064,1063 1716,4 4084,-12 5419,-474"/>
   <path class="fil1 str1" d="M7344 19893c0,411 -155,835 66,1072 412,442 6330,256 7055,-283"/>
   <path class="fil1 str1" d="M14420 20223c1364,425 1160,204 1140,1450 -6,365 78,883 -172,1151 -1065,1142 -8085,1926 -9073,588 -184,-249 -132,-751 -130,-1156 4,-770 -152,-1352 759,-1544"/>
   <path class="fil1 str1" d="M6181 22908c-51,104 -215,330 -245,520 -181,1125 1207,1370 2954,1452 256,12 4747,-223 6232,-999 346,-181 662,-376 673,-725 6,-176 43,-521 -254,-661"/>
   <path class="fil1 str1" d="M11368 635c136,435 1357,370 449,1117 -471,387 -229,667 -203,639"/>
   <line class="fil1 str1" x1="9292" y1="5893" x2="9283" y2= "6783" />
   <line class="fil1 str1" x1="9133" y1="8917" x2="9124" y2= "10165" />
   <line class="fil1 str1" x1="12530" y1="9248" x2="12521" y2= "10138" />
   <line class="fil1 str1" x1="12789" y1="12106" x2="12780" y2= "12997" />
   <line class="fil1 str1" x1="8969" y1="15341" x2="8960" y2= "16578" />
   <line class="fil1 str1" x1="12557" y1="5935" x2="12547" y2= "6825" />
   <line class="fil1 str1" x1="9044" y1="12166" x2="9035" y2= "13242" />
   <line class="fil1 str1" x1="12763" y1="15263" x2="12754" y2= "16153" />
  </g>
 </g>
</svg>
