<?xml version="1.0" encoding="UTF-8"?>
<!DOCTYPE svg PUBLIC "-//W3C//DTD SVG 1.1//EN" "http://www.w3.org/Graphics/SVG/1.1/DTD/svg11.dtd">
<!-- Creator: CorelDRAW X6 -->
<svg xmlns="http://www.w3.org/2000/svg" xml:space="preserve" width="215.9mm" height="279.4mm" version="1.1" style="shape-rendering:geometricPrecision; text-rendering:geometricPrecision; image-rendering:optimizeQuality; fill-rule:evenodd; clip-rule:evenodd"
viewBox="0 0 21590 27940"
 xmlns:xlink="http://www.w3.org/1999/xlink">
 <defs>
  <style type="text/css">
   <![CDATA[
    .str0 {stroke:#FEFEFE;stroke-width:50;stroke-linecap:round}
    .fil0 {fill:none}
   ]]>
  </style>
 </defs>
 <g id="Capa_x0020_1">
  <metadata id="CorelCorpID_0Corel-Layer"/>
  <g id="_562365056">
   <polyline class="fil0 str0" points="6196,7586 7135,7346 8459,7261 13274,7225 14562,7382 15405,7707 "/>
   <polyline class="fil0 str0" points="6497,8032 7243,7815 8447,7731 13322,7719 14514,7863 15308,8140 "/>
   <path class="fil0 str0" d="M12383 7983c379,0 686,329 686,734 0,406 -307,734 -686,734 -379,0 -686,-329 -686,-734 0,-406 307,-734 686,-734z"/>
   <path class="fil0 str0" d="M7075 8219c138,0 250,304 250,679 0,375 -112,679 -250,679 -138,0 -250,-304 -250,-679 0,-375 112,-679 250,-679z"/>
   <path class="fil0 str0" d="M12383 8336c211,0 382,171 382,382 0,211 -171,382 -382,382 -211,0 -382,-171 -382,-382 0,-211 171,-382 382,-382z"/>
   <path class="fil0 str0" d="M8844 15410l0 -2576c0,-285 310,-678 554,-776"/>
   <path class="fil0 str0" d="M11878 15437l0 -2576c0,-285 310,-678 554,-776"/>
   <path class="fil0 str0" d="M14249 15558l0 -2576c-1,-366 85,-551 346,-758"/>
   <path class="fil0 str0" d="M7296 15549l0 -2576c1,-366 -85,-551 -346,-758"/>
   <polygon class="fil0 str0" points="9880,13045 10385,13045 10385,13202 9880,13202 "/>
   <polygon class="fil0 str0" points="12781,13069 13286,13069 13286,13226 12781,13226 "/>
   <polygon class="fil0 str0" points="11516,13045 11878,13045 11878,13202 11516,13202 "/>
   <path class="fil0 str0" d="M12511 15425l0 -2395c1,-340 -85,-512 -346,-705"/>
   <path class="fil0 str0" d="M9308 15399l0 -2323c-1,-330 85,-497 346,-684"/>
   <polygon class="fil0 str0" points="8507,13057 8845,13057 8845,13214 8507,13214 "/>
   <polygon class="fil0 str0" points="13900,13088 14249,13088 14249,13245 13900,13245 "/>
   <path class="fil0 str0" d="M9392 11734c-353,134 -845,768 -806,1323"/>
   <path class="fil0 str0" d="M12405 11716c-353,134 -845,768 -806,1323"/>
   <path class="fil0 str0" d="M14636 11891c-353,134 -626,635 -587,1191"/>
   <polygon class="fil0 str0" points="7299,13072 7636,13072 7636,13228 7299,13228 "/>
   <path class="fil0 str0" d="M10775 1784c0,240 -64,582 -350,613 -97,11 -85,128 109,170 345,74 -248,1067 -375,1222 -168,205 -483,489 -481,523 16,190 681,127 904,-518"/>
   <path class="fil0 str0" d="M9446 4592c-387,299 -789,421 -1247,550"/>
   <path class="fil0 str0" d="M7802 5380c-122,155 -504,461 -658,678 -182,256 -118,537 225,625"/>
   <path class="fil0 str0" d="M10956 1929c35,357 486,542 192,648 -421,151 98,1138 386,1373 177,145 746,410 481,591"/>
   <path class="fil0 str0" d="M6710 5093c66,0 120,78 120,175 0,96 -54,175 -120,175 -66,0 -120,-78 -120,-175 0,-96 54,-175 120,-175z"/>
   <path class="fil0 str0" d="M7962 4756c66,0 120,78 120,175 0,96 -54,175 -120,175 -66,0 -120,-78 -120,-175 0,-96 54,-175 120,-175z"/>
   <path class="fil0 str0" d="M10899 4563c66,0 120,78 120,175 0,96 -54,175 -120,175 -66,0 -120,-78 -120,-175 0,-96 54,-175 120,-175z"/>
   <path class="fil0 str0" d="M13632 4744c66,0 120,78 120,175 0,96 -54,175 -120,175 -66,0 -120,-78 -120,-175 0,-96 54,-175 120,-175z"/>
   <path class="fil0 str0" d="M14727 5057c66,0 120,78 120,175 0,96 -54,175 -120,175 -66,0 -120,-78 -120,-175 0,-96 54,-175 120,-175z"/>
   <path class="fil0 str0" d="M12031 5466c455,0 825,251 825,560 0,309 -369,560 -825,560 -455,0 -825,-251 -825,-560 0,-309 369,-560 825,-560z"/>
   <path class="fil0 str0" d="M11777 5596c521,189 743,479 154,985"/>
   <path class="fil0 str0" d="M10842 2729c0,323 455,1567 193,1588 -51,4 -82,44 -144,-23"/>
   <path class="fil0 str0" d="M11155 3619c75,60 863,1059 265,799 -20,-9 -32,-18 -36,-40"/>
   <polyline class="fil0 str0" points="11203,4895 12624,4919 13141,5040 "/>
   <polyline class="fil0 str0" points="11203,5124 12804,5124 13370,5232 "/>
   <polyline class="fil0 str0" points="11203,5329 13129,5389 13418,5461 "/>
   <line class="fil0 str0" x1="8399" y1="6472" x2="10517" y2= "6460" />
   <line class="fil0 str0" x1="6710" y1="5442" x2="6429" y2= "6895" />
   <line class="fil0 str0" x1="6737" y1="5438" x2="6899" y2= "6901" />
   <line class="fil0 str0" x1="6769" y1="5420" x2="7070" y2= "6862" />
   <line class="fil0 str0" x1="7925" y1="5097" x2="7603" y2= "6585" />
   <line class="fil0 str0" x1="7962" y1="5105" x2="8126" y2= "6567" />
   <line class="fil0 str0" x1="8008" y1="5092" x2="8307" y2= "6561" />
   <line class="fil0 str0" x1="10869" y1="4907" x2="10648" y2= "6471" />
   <line class="fil0 str0" x1="10947" y1="4898" x2="11160" y2= "6459" />
   <line class="fil0 str0" x1="10994" y1="4847" x2="11232" y2= "6387" />
   <line class="fil0 str0" x1="13595" y1="5085" x2="13314" y2= "6519" />
   <line class="fil0 str0" x1="13632" y1="5093" x2="13766" y2= "6507" />
   <line class="fil0 str0" x1="13666" y1="5086" x2="13904" y2= "6606" />
   <line class="fil0 str0" x1="14677" y1="5390" x2="14548" y2= "6510" />
   <line class="fil0 str0" x1="14748" y1="5403" x2="14876" y2= "6787" />
   <line class="fil0 str0" x1="14798" y1="5439" x2="14991" y2= "6691" />
   <polyline class="fil0 str0" points="6330,7046 6932,7046 7149,6998 "/>
   <polyline class="fil0 str0" points="7558,6745 7811,6757 8136,6733 8413,6661 "/>
   <polyline class="fil0 str0" points="10579,6600 10820,6612 11157,6624 11410,6576 "/>
   <polyline class="fil0 str0" points="13203,6721 13793,6721 14034,6685 "/>
   <polyline class="fil0 str0" points="14383,7070 14696,7094 14925,7070 15141,6986 "/>
   <line class="fil0 str0" x1="8581" y1="6721" x2="10483" y2= "6721" />
   <path class="fil0 str0" d="M14275 5914c321,160 193,757 -96,770"/>
   <line class="fil0 str0" x1="7334" y1="10114" x2="8346" y2= "10042" />
   <line class="fil0 str0" x1="10440" y1="9969" x2="11523" y2= "9921" />
   <line class="fil0 str0" x1="13329" y1="9945" x2="14075" y2= "9969" />
   <line class="fil0 str0" x1="13329" y1="9223" x2="14027" y2= "9247" />
   <line class="fil0 str0" x1="13353" y1="8525" x2="14051" y2= "8573" />
   <line class="fil0 str0" x1="10452" y1="8489" x2="11486" y2= "8504" />
   <line class="fil0 str0" x1="10392" y1="9151" x2="11572" y2= "9151" />
   <line class="fil0 str0" x1="7503" y1="8718" x2="8346" y2= "8645" />
   <line class="fil0 str0" x1="7407" y1="9416" x2="8466" y2= "9319" />
   <line class="fil0 str0" x1="8346" y1="10042" x2="8346" y2= "15651" />
   <line class="fil0 str0" x1="11523" y1="9921" x2="11523" y2= "14905" />
   <line class="fil0 str0" x1="14075" y1="9969" x2="14075" y2= "12136" />
   <line class="fil0 str0" x1="14894" y1="8332" x2="14942" y2= "15819" />
   <line class="fil0 str0" x1="6612" y1="8308" x2="6588" y2= "16036" />
   <polyline class="fil0 str0" points="6480,16241 7347,16132 8370,16108 11668,16096 13389,16048 15086,16193 "/>
   <line class="fil0 str0" x1="10332" y1="13424" x2="10356" y2= "15795" />
   <line class="fil0 str0" x1="13365" y1="10246" x2="13365" y2= "14796" />
   <line class="fil0 str0" x1="8310" y1="7911" x2="8310" y2= "8441" />
   <line class="fil0 str0" x1="11487" y1="7902" x2="11475" y2= "8381" />
   <line class="fil0 str0" x1="13383" y1="8679" x2="13383" y2= "9076" />
   <polygon class="fil0 str0" points="6257,9371 6595,9371 6595,9527 6257,9527 "/>
   <path class="fil0 str0" d="M9429 9581c415,0 752,345 752,770 0,425 -337,770 -752,770 -416,0 -752,-345 -752,-770 0,-425 337,-770 752,-770z"/>
   <path class="fil0 str0" d="M9387 9894c219,0 397,186 397,415 0,229 -178,415 -397,415 -219,0 -397,-186 -397,-415 0,-229 178,-415 397,-415z"/>
   <path class="fil0 str0" d="M12469 9545c399,0 722,350 722,782 0,432 -323,782 -722,782 -399,0 -722,-350 -722,-782 0,-432 323,-782 722,-782z"/>
   <path class="fil0 str0" d="M12478 9690c298,0 540,275 540,614 0,339 -242,614 -540,614 -298,0 -540,-275 -540,-614 0,-339 242,-614 540,-614z"/>
   <path class="fil0 str0" d="M14521 9906c170,0 307,275 307,614 0,339 -137,614 -307,614 -170,0 -307,-275 -307,-614 0,-339 137,-614 307,-614z"/>
   <path class="fil0 str0" d="M14569 10075c83,0 151,204 151,456 0,252 -68,456 -151,456 -83,0 -151,-204 -151,-456 0,-252 68,-456 151,-456z"/>
   <path class="fil0 str0" d="M7094 9918c163,0 295,310 295,692 0,382 -132,692 -295,692 -163,0 -295,-310 -295,-692 0,-382 132,-692 295,-692z"/>
   <path class="fil0 str0" d="M7070 10195c43,0 78,162 78,361 0,199 -35,361 -78,361 -43,0 -78,-162 -78,-361 0,-199 35,-361 78,-361z"/>
   <polygon class="fil0 str0" points="14912,9365 15249,9365 15249,9521 14912,9521 "/>
   <polyline class="fil0 str0" points="15405,7707 15249,7848 15258,8038 "/>
   <polyline class="fil0 str0" points="6196,7586 6348,7704 6348,7950 "/>
   <polyline class="fil0 str0" points="6312,6933 6913,6933 7130,6885 "/>
   <polyline class="fil0 str0" points="7539,6644 7792,6656 8117,6632 8394,6560 "/>
   <polyline class="fil0 str0" points="10579,6506 10819,6518 11157,6530 11409,6482 "/>
   <polyline class="fil0 str0" points="13191,6638 13781,6638 14021,6602 "/>
   <polyline class="fil0 str0" points="14340,6939 14653,6963 14882,6939 15099,6855 "/>
   <line class="fil0 str0" x1="10850" y1="794" x2="10877" y2= "1736" />
   <path class="fil0 str0" d="M12383 8650c37,0 67,30 67,68 0,37 -30,68 -67,68 -37,0 -67,-30 -67,-68 0,-37 30,-68 67,-68z"/>
   <path class="fil0 str0" d="M7061 8825c22,0 39,33 39,74 0,41 -18,74 -39,74 -22,0 -39,-33 -39,-74 0,-41 18,-74 39,-74z"/>
   <line class="fil0 str0" x1="14940" y1="8272" x2="15162" y2= "8164" />
   <line class="fil0 str0" x1="6598" y1="8257" x2="6390" y2= "8080" />
   <polyline class="fil0 str0" points="6393,7646 7158,7436 8452,7358 13260,7321 14536,7502 15210,7731 "/>
   <line class="fil0 str0" x1="8295" y1="9470" x2="8295" y2= "9843" />
   <line class="fil0 str0" x1="11473" y1="9398" x2="11473" y2= "9771" />
   <line class="fil0 str0" x1="13387" y1="9434" x2="13399" y2= "9771" />
   <line class="fil0 str0" x1="7439" y1="15148" x2="8125" y2= "15148" />
   <line class="fil0 str0" x1="10472" y1="15040" x2="11520" y2= "15040" />
   <line class="fil0 str0" x1="13361" y1="15052" x2="14084" y2= "15076" />
   <path class="fil0 str0" d="M12155 13761c465,-81 145,342 332,616 49,71 -420,61 -462,61"/>
   <path class="fil0 str0" d="M9455 13936c465,-81 145,342 332,616 49,71 -420,61 -462,61"/>
   <polygon class="fil0 str0" points="8655,16195 10220,16195 10220,17014 8655,17014 "/>
   <polygon class="fil0 str0" points="11905,16219 13084,16219 13084,16990 11905,16990 "/>
   <polygon class="fil0 str0" points="6717,16400 7198,16328 7198,16906 6717,16978 "/>
   <path class="fil0 str0" d="M12233 16663c-84,45 -145,94 -137,109 8,15 83,-10 166,-55 84,-45 145,-94 137,-109 -8,-15 -83,10 -166,55z"/>
   <path class="fil0 str0" d="M12792 16367c-84,45 -145,94 -137,109 8,15 83,-10 166,-55 84,-45 145,-94 137,-109 -8,-15 -83,10 -166,55z"/>
   <path class="fil0 str0" d="M12824 16684c84,45 145,94 137,109 -8,15 -83,-10 -166,-55 -84,-45 -145,-94 -137,-109 8,-15 83,10 166,55z"/>
   <path class="fil0 str0" d="M12262 16353c84,45 145,94 137,109 -8,15 -83,-10 -166,-55 -84,-45 -145,-94 -137,-109 8,-15 83,10 166,55z"/>
   <path class="fil0 str0" d="M12481 16773c0,84 14,152 31,152 17,0 31,-68 30,-152 0,-84 -14,-152 -31,-152 -17,0 -31,68 -30,152z"/>
   <path class="fil0 str0" d="M12169 16506c-95,-2 -172,11 -173,28 0,17 77,32 172,34 95,2 172,-11 173,-28 0,-17 -77,-32 -172,-34z"/>
   <path class="fil0 str0" d="M12858 16518c-95,-2 -173,11 -173,28 0,17 77,32 172,34 95,2 173,-11 173,-28 0,-17 -77,-32 -172,-34z"/>
   <path class="fil0 str0" d="M12483 16364c0,42 14,76 31,76 17,0 31,-34 30,-76 0,-42 -14,-76 -31,-76 -17,0 -31,34 -30,76z"/>
   <path class="fil0 str0" d="M9159 16647c-84,45 -145,94 -137,109 8,15 83,-10 166,-55 84,-45 145,-94 137,-109 -8,-15 -83,10 -166,55z"/>
   <path class="fil0 str0" d="M9718 16351c-84,45 -145,94 -137,109 8,15 83,-10 166,-55 84,-45 145,-94 137,-109 -8,-15 -83,10 -166,55z"/>
   <path class="fil0 str0" d="M9750 16668c84,45 145,94 137,109 -8,15 -83,-10 -166,-55 -84,-45 -145,-94 -137,-109 8,-15 83,10 166,55z"/>
   <path class="fil0 str0" d="M9187 16337c84,45 145,94 137,109 -8,15 -83,-10 -166,-55 -84,-45 -145,-94 -137,-109 8,-15 83,10 166,55z"/>
   <path class="fil0 str0" d="M9407 16757c0,84 14,152 31,152 17,0 31,-68 30,-152 0,-84 -14,-152 -31,-152 -17,0 -31,68 -30,152z"/>
   <path class="fil0 str0" d="M9094 16489c-95,-2 -173,11 -173,28 0,17 77,32 172,34 95,2 173,-11 173,-28 0,-17 -77,-32 -172,-34z"/>
   <path class="fil0 str0" d="M9784 16502c-95,-2 -172,11 -173,28 0,17 77,32 172,34 95,2 172,-11 173,-28 0,-17 -77,-32 -172,-34z"/>
   <path class="fil0 str0" d="M9409 16348c0,42 14,76 31,76 17,0 31,-34 30,-76 0,-42 -14,-76 -31,-76 -17,0 -31,34 -30,76z"/>
   <path class="fil0 str0" d="M6975 16793c-84,45 -145,94 -137,109 8,15 83,-10 166,-55 84,-45 145,-94 137,-109 -8,-15 -83,10 -166,55z"/>
   <path class="fil0 str0" d="M7004 16483c84,45 145,94 137,109 -8,15 -83,-10 -166,-55 -84,-45 -145,-94 -137,-109 8,-15 83,10 166,55z"/>
   <path class="fil0 str0" d="M6911 16635c-95,-2 -172,11 -173,28 0,17 77,32 172,34 95,2 172,-11 173,-28 0,-17 -77,-32 -172,-34z"/>
   <path class="fil0 str0" d="M6126 16369c70,0 126,51 126,114 0,63 -57,114 -126,114 -70,0 -126,-51 -126,-114 0,-63 57,-114 126,-114z"/>
   <path class="fil0 str0" d="M7528 16194c70,0 126,51 126,114 0,63 -57,114 -126,114 -70,0 -126,-51 -126,-114 0,-63 57,-114 126,-114z"/>
   <path class="fil0 str0" d="M10982 16122c70,0 126,51 126,114 0,63 -57,114 -126,114 -70,0 -126,-51 -126,-114 0,-63 57,-114 126,-114z"/>
   <path class="fil0 str0" d="M14052 16146c70,0 126,51 126,114 0,63 -57,114 -126,114 -70,0 -126,-51 -126,-114 0,-63 57,-114 126,-114z"/>
   <path class="fil0 str0" d="M15316 16290c70,0 126,51 126,114 0,63 -57,114 -126,114 -70,0 -126,-51 -126,-114 0,-63 57,-114 126,-114z"/>
   <polygon class="fil0 str0" points="5912,16718 6375,16718 6375,16808 5912,16808 "/>
   <polygon class="fil0 str0" points="7335,16561 7766,16561 7766,16651 7335,16651 "/>
   <polygon class="fil0 str0" points="10784,16387 11181,16387 11181,16489 10784,16489 "/>
   <polygon class="fil0 str0" points="13811,16453 14269,16453 14269,16567 13811,16567 "/>
   <polygon class="fil0 str0" points="15124,16646 15534,16646 15534,16766 15124,16766 "/>
   <path class="fil0 str0" d="M5964 16850c-52,167 48,139 114,175"/>
   <path class="fil0 str0" d="M7766 16651c-13,124 -22,202 -152,235"/>
   <path class="fil0 str0" d="M10784 16489c-56,179 13,169 115,271"/>
   <path class="fil0 str0" d="M13866 16604c0,212 166,210 175,247"/>
   <path class="fil0 str0" d="M15497 16790c-10,33 128,151 -72,262"/>
   <path class="fil0 str0" d="M15133 16829c-60,102 73,189 79,210 18,57 14,109 14,169"/>
   <path class="fil0 str0" d="M14264 16637c0,300 -241,166 -8,348 23,18 20,54 20,80"/>
   <path class="fil0 str0" d="M11176 16546c0,258 -146,156 -112,266 17,6 124,68 127,106 1,17 12,31 12,67"/>
   <path class="fil0 str0" d="M7354 16688c0,234 135,123 121,244 -6,52 -131,98 -78,169"/>
   <path class="fil0 str0" d="M6322 16859c0,305 -108,124 -108,247 89,-7 217,22 217,131 0,11 0,21 0,32"/>
   <path class="fil0 str0" d="M6075 17124c-86,-3 -221,97 -217,169"/>
   <polyline class="fil0 str0" points="5702,17534 6527,17353 8362,17233 13394,17239 14477,17263 15783,17431 "/>
   <polyline class="fil0 str0" points="5702,17765 6527,17584 8362,17464 13394,17470 14477,17494 15783,17662 "/>
   <line class="fil0 str0" x1="5931" y1="18045" x2="6569" y2= "17913" />
   <polyline class="fil0 str0" points="15512,17937 14357,17720 11203,17744 8434,17744 7339,17840 6569,17913 "/>
   <polyline class="fil0 str0" points="6171,18779 7447,18659 8242,18611 11046,18539 11732,18527 13526,18539 14224,18527 15283,18707 "/>
   <polyline class="fil0 str0" points="5967,19875 7158,19742 8410,19682 11118,19670 13429,19682 14380,19706 15416,19779 "/>
   <line class="fil0 str0" x1="7303" y1="20561" x2="8266" y2= "20537" />
   <line class="fil0 str0" x1="10384" y1="20501" x2="11684" y2= "20477" />
   <line class="fil0 str0" x1="13417" y1="20465" x2="14248" y2= "20465" />
   <line class="fil0 str0" x1="15127" y1="20621" x2="15404" y2= "20633" />
   <line class="fil0 str0" x1="6123" y1="20609" x2="6532" y2= "20621" />
   <line class="fil0 str0" x1="11040" y1="17828" x2="11034" y2= "18382" />
   <line class="fil0 str0" x1="11046" y1="18743" x2="11046" y2= "19357" />
   <line class="fil0 str0" x1="8229" y1="17925" x2="8229" y2= "18466" />
   <line class="fil0 str0" x1="8217" y1="18767" x2="8217" y2= "19466" />
   <line class="fil0 str0" x1="6292" y1="18924" x2="6292" y2= "19646" />
   <line class="fil0 str0" x1="13514" y1="18743" x2="13514" y2= "19417" />
   <line class="fil0 str0" x1="15067" y1="18960" x2="15067" y2= "19574" />
   <line class="fil0 str0" x1="13514" y1="19947" x2="13514" y2= "20320" />
   <line class="fil0 str0" x1="11052" y1="19827" x2="11052" y2= "20338" />
   <line class="fil0 str0" x1="10384" y1="20630" x2="11684" y2= "20606" />
   <line class="fil0 str0" x1="13399" y1="20621" x2="14230" y2= "20621" />
   <line class="fil0 str0" x1="15121" y1="20711" x2="15397" y2= "20723" />
   <line class="fil0 str0" x1="7315" y1="20662" x2="8278" y2= "20638" />
   <line class="fil0 str0" x1="6123" y1="20687" x2="6532" y2= "20699" />
   <line class="fil0 str0" x1="6249" y1="20847" x2="6237" y2= "25794" />
   <line class="fil0 str0" x1="8229" y1="20817" x2="8217" y2= "25764" />
   <line class="fil0 str0" x1="11094" y1="20805" x2="11082" y2= "25752" />
   <line class="fil0 str0" x1="14091" y1="20829" x2="14079" y2= "25776" />
   <line class="fil0 str0" x1="15367" y1="20817" x2="15355" y2= "25764" />
   <path class="fil0 str0" d="M12914 21918c434,0 511,495 184,656 -41,20 -130,42 -178,42"/>
   <path class="fil0 str0" d="M12237 21909c-434,0 -511,495 -184,656 41,20 130,42 178,42"/>
   <path class="fil0 str0" d="M12947 21810c0,-434 -495,-511 -656,-184 -20,41 -42,130 -42,178"/>
   <path class="fil0 str0" d="M12935 22701c0,434 -495,511 -656,184 -20,-41 -42,-130 -42,-178"/>
   <path class="fil0 str0" d="M13090 22861c0,656 -749,773 -992,278 -30,-62 -64,-196 -64,-269"/>
   <path class="fil0 str0" d="M13102 21680c0,-656 -749,-773 -992,-278 -30,62 -64,196 -64,269"/>
   <path class="fil0 str0" d="M12041 22777c-656,0 -773,-749 -278,-992 62,-30 196,-64 269,-64"/>
   <path class="fil0 str0" d="M13125 22807c656,0 773,-749 278,-992 -62,-30 -196,-64 -269,-64"/>
   <path class="fil0 str0" d="M9761 21967c434,0 511,495 184,656 -41,20 -130,42 -178,42"/>
   <path class="fil0 str0" d="M9084 21958c-434,0 -511,495 -184,656 41,20 130,42 178,42"/>
   <path class="fil0 str0" d="M9794 21858c0,-434 -495,-511 -656,-184 -20,41 -42,130 -42,178"/>
   <path class="fil0 str0" d="M9782 22749c0,434 -495,511 -656,184 -20,-41 -42,-130 -42,-178"/>
   <path class="fil0 str0" d="M9936 22909c0,656 -749,773 -992,278 -30,-62 -64,-196 -64,-269"/>
   <path class="fil0 str0" d="M9949 21728c0,-656 -749,-773 -992,-278 -30,62 -64,196 -64,269"/>
   <path class="fil0 str0" d="M8888 22826c-656,0 -773,-749 -278,-992 62,-30 196,-64 269,-64"/>
   <path class="fil0 str0" d="M9972 22856c656,0 773,-749 278,-992 -62,-30 -196,-64 -269,-64"/>
   <path class="fil0 str0" d="M7051 22027c238,0 281,495 101,656 -22,20 -71,42 -98,42"/>
   <path class="fil0 str0" d="M6679 22018c-238,0 -281,495 -101,656 22,20 71,42 98,42"/>
   <path class="fil0 str0" d="M7069 21919c0,-434 -272,-511 -360,-184 -11,41 -23,130 -23,178"/>
   <path class="fil0 str0" d="M7062 22809c0,434 -272,511 -360,184 -11,-41 -23,-130 -23,-178"/>
   <path class="fil0 str0" d="M7147 22969c0,656 -412,773 -545,278 -17,-62 -35,-196 -35,-269"/>
   <path class="fil0 str0" d="M7154 21789c0,-656 -412,-773 -545,-278 -17,62 -35,196 -35,269"/>
   <path class="fil0 str0" d="M6571 22886c-361,0 -424,-749 -153,-992 34,-30 108,-64 148,-64"/>
   <path class="fil0 str0" d="M7167 22916c361,0 424,-749 153,-992 -34,-30 -108,-64 -148,-64"/>
   <path class="fil0 str0" d="M14955 21858c208,0 244,495 88,656 -20,20 -62,42 -85,42"/>
   <path class="fil0 str0" d="M14631 21849c-208,0 -244,495 -88,656 20,20 62,42 85,42"/>
   <path class="fil0 str0" d="M14971 21750c0,-434 -237,-511 -314,-184 -10,41 -20,130 -20,178"/>
   <path class="fil0 str0" d="M14965 22640c0,434 -237,511 -314,184 -10,-41 -20,-130 -20,-178"/>
   <path class="fil0 str0" d="M15039 22800c0,656 -358,773 -474,278 -15,-62 -31,-196 -31,-269"/>
   <path class="fil0 str0" d="M15045 21620c0,-656 -358,-773 -474,-278 -14,62 -31,196 -31,269"/>
   <path class="fil0 str0" d="M14538 22717c-314,0 -369,-749 -133,-992 30,-30 94,-64 128,-64"/>
   <path class="fil0 str0" d="M15056 22747c314,0 369,-749 133,-992 -30,-30 -94,-64 -128,-64"/>
   <polyline class="fil0 str0" points="11864,19824 11648,20005 11651,20266 "/>
   <line class="fil0 str0" x1="13514" y1="19947" x2="13375" y2= "19791" />
   <polyline class="fil0 str0" points="15563,19854 15400,20056 15388,20549 "/>
   <polyline class="fil0 str0" points="15454,17973 15268,18040 15265,18536 "/>
   <polyline class="fil0 str0" points="6102,18100 6282,18256 6270,18509 "/>
   <polyline class="fil0 str0" points="6035,19990 6198,20146 6222,20543 "/>
   <polyline class="fil0 str0" points="8407,19773 8244,19990 8232,20393 "/>
   <polyline class="fil0 str0" points="14366,17841 14233,17950 14233,18323 "/>
   <polyline class="fil0 str0" points="14342,18648 14197,18810 14197,19340 "/>
   <line class="fil0 str0" x1="11652" y1="18726" x2="11670" y2= "19448" />
   <line class="fil0 str0" x1="11622" y1="17962" x2="11634" y2= "18383" />
   <line class="fil0 str0" x1="11646" y1="20790" x2="11646" y2= "21669" />
   <line class="fil0 str0" x1="13511" y1="20730" x2="13511" y2= "21753" />
   <path class="fil0 str0" d="M15362 16529c25,81 176,-11 164,95"/>
   <path class="fil0 str0" d="M14113 16360c57,38 168,-46 157,73"/>
   <path class="fil0 str0" d="M11061 16326c29,55 125,-41 120,47"/>
   <path class="fil0 str0" d="M6186 16583c8,109 129,-48 181,111l0 0"/>
   <path class="fil0 str0" d="M7589 16409c19,98 185,3 190,115"/>
  </g>
 </g>
</svg>
